<svg xmlns="http://www.w3.org/2000/svg" xmlns:xlink="http://www.w3.org/1999/xlink" width="500" zoomAndPan="magnify" viewBox="0 0 375 374.999991" height="500" preserveAspectRatio="xMidYMid meet" version="1.0"><defs><g/><clipPath id="e8e7c513c3"><path d="M 133.207031 218.355469 L 146.660156 218.355469 L 146.660156 231.808594 L 133.207031 231.808594 Z M 133.207031 218.355469 " clip-rule="nonzero"/></clipPath><clipPath id="d1e29eb0a0"><path d="M 292.804688 169.425781 L 306.261719 169.425781 L 306.261719 182.882812 L 292.804688 182.882812 Z M 292.804688 169.425781 " clip-rule="nonzero"/></clipPath><clipPath id="f1797052a3"><path d="M 285.488281 159.902344 L 295.101562 159.902344 L 295.101562 169.515625 L 285.488281 169.515625 Z M 285.488281 159.902344 " clip-rule="nonzero"/></clipPath><clipPath id="d1834e6867"><path d="M 183.222656 169.910156 L 192.832031 169.910156 L 192.832031 179.519531 L 183.222656 179.519531 Z M 183.222656 169.910156 " clip-rule="nonzero"/></clipPath><clipPath id="825a1b402f"><path d="M 42 155 L 124 155 L 124 231.136719 L 42 231.136719 Z M 42 155 " clip-rule="nonzero"/></clipPath></defs><g fill="#cb6ce6" fill-opacity="1"><g transform="translate(136.204922, 218.455147)"><g><path d="M 26.804688 -18.644531 C 25.175781 -16.449219 20.589844 -9.164062 16.699219 -9.164062 L 13.621094 -9.164062 C 20.527344 -18.269531 24.359375 -29.695312 27.058594 -36.976562 C 27.621094 -38.484375 27.246094 -39.363281 25.863281 -39.363281 L 6.90625 -39.363281 C 3.578125 -39.363281 0 -37.414062 0 -34.277344 C 0 -29.757812 6.65625 -27.9375 8.976562 -32.015625 C 10.734375 -35.21875 12.429688 -37.605469 15.191406 -37.605469 L 15.882812 -37.605469 C 13.9375 -32.203125 7.785156 -15.632812 1.695312 -9.855469 C 0.503906 -8.726562 1.445312 -7.40625 2.886719 -7.40625 L 25.300781 -7.40625 C 26.492188 -7.40625 26.867188 -7.910156 26.996094 -9.164062 C 27.183594 -10.859375 28.125 -17.953125 28.125 -18.394531 C 28.125 -19.085938 27.308594 -19.273438 26.804688 -18.644531 Z M 26.804688 -18.644531 "/></g></g></g><g fill="#cb6ce6" fill-opacity="1"><g transform="translate(164.828143, 218.455147)"><g><path d="M 25.175781 -8.726562 C 22.976562 -10.359375 22.601562 -11.738281 22.601562 -14.0625 L 22.601562 -19.210938 C 22.601562 -25.988281 17.515625 -30.636719 10.796875 -30.636719 C 5.023438 -30.636719 1.882812 -27.746094 1.882812 -25.046875 C 1.882812 -21.40625 11.300781 -22.664062 9.980469 -25.738281 C 9.226562 -27.371094 9.226562 -28.878906 10.171875 -28.878906 C 12.429688 -28.878906 13.8125 -24.734375 13.8125 -21.09375 L 13.8125 -19.210938 C 12.429688 -21.03125 10.171875 -22.222656 7.660156 -22.222656 C 3.453125 -22.222656 0 -18.894531 0 -14.816406 C 0 -10.734375 3.453125 -7.40625 7.660156 -7.40625 C 10.171875 -7.40625 12.429688 -8.601562 13.8125 -10.421875 C 13.8125 -10.421875 15.128906 -7.40625 18.519531 -7.40625 L 24.921875 -7.40625 C 25.613281 -7.40625 25.800781 -8.222656 25.175781 -8.726562 Z M 10.421875 -10.796875 C 8.726562 -10.796875 7.34375 -12.617188 7.34375 -14.816406 C 7.34375 -17.011719 8.726562 -18.832031 10.421875 -18.832031 C 12.179688 -18.832031 13.558594 -17.011719 13.558594 -14.816406 C 13.558594 -12.617188 12.179688 -10.796875 10.421875 -10.796875 Z M 10.421875 -10.796875 "/></g></g></g><g fill="#cb6ce6" fill-opacity="1"><g transform="translate(191.128848, 218.455147)"><g><path d="M 13.75 -8.976562 C 11.425781 -10.734375 10.171875 -25.800781 12.367188 -37.792969 C 12.492188 -38.609375 13.058594 -39.675781 11.738281 -39.363281 C 9.417969 -38.921875 6.65625 -34.777344 0.628906 -34.777344 C 0 -34.777344 -0.25 -34.027344 0.375 -33.523438 C 2.574219 -31.890625 2.949219 -30.511719 2.949219 -28.1875 L 2.949219 -14.0625 C 2.949219 -11.738281 2.574219 -10.359375 0.375 -8.726562 C -0.25 -8.222656 0 -7.40625 0.628906 -7.40625 L 13.058594 -7.40625 C 14.4375 -7.40625 14.375 -8.476562 13.75 -8.976562 Z M 13.75 -8.976562 "/></g></g></g><g fill="#cb6ce6" fill-opacity="1"><g transform="translate(205.754237, 218.455147)"><g><path d="M 22.347656 -14.628906 C 20.589844 -12.304688 16.761719 -11.488281 14.4375 -12.117188 C 11.929688 -12.871094 10.546875 -14.628906 9.917969 -16.699219 C 11.238281 -16.132812 12.679688 -15.757812 14.3125 -15.757812 C 19.210938 -15.757812 23.226562 -19.085938 23.226562 -23.164062 C 23.226562 -27.308594 17.953125 -30.636719 13.058594 -30.636719 C 5.523438 -30.636719 0 -25.425781 0 -19.023438 C 0 -12.617188 5.585938 -7.40625 12.554688 -7.40625 C 17.390625 -7.40625 21.59375 -9.980469 23.667969 -13.6875 C 24.042969 -14.375 22.976562 -15.441406 22.347656 -14.628906 Z M 12.742188 -28.878906 C 14.4375 -28.878906 15.632812 -26.304688 15.632812 -23.164062 C 15.632812 -20.089844 14.4375 -17.515625 12.742188 -17.515625 C 11.238281 -17.515625 9.667969 -19.585938 9.667969 -22.914062 C 9.667969 -26.933594 11.738281 -28.878906 12.742188 -28.878906 Z M 12.742188 -28.878906 "/></g></g></g><g fill="#cb6ce6" fill-opacity="1"><g transform="translate(230.171831, 218.455147)"><g><path d="M 26.804688 -18.644531 C 25.175781 -16.449219 20.589844 -9.164062 16.699219 -9.164062 L 13.621094 -9.164062 C 20.527344 -18.269531 24.359375 -29.695312 27.058594 -36.976562 C 27.621094 -38.484375 27.246094 -39.363281 25.863281 -39.363281 L 6.90625 -39.363281 C 3.578125 -39.363281 0 -37.414062 0 -34.277344 C 0 -29.757812 6.65625 -27.9375 8.976562 -32.015625 C 10.734375 -35.21875 12.429688 -37.605469 15.191406 -37.605469 L 15.882812 -37.605469 C 13.9375 -32.203125 7.785156 -15.632812 1.695312 -9.855469 C 0.503906 -8.726562 1.445312 -7.40625 2.886719 -7.40625 L 25.300781 -7.40625 C 26.492188 -7.40625 26.867188 -7.910156 26.996094 -9.164062 C 27.183594 -10.859375 28.125 -17.953125 28.125 -18.394531 C 28.125 -19.085938 27.308594 -19.273438 26.804688 -18.644531 Z M 26.804688 -18.644531 "/></g></g></g><g fill="#cb6ce6" fill-opacity="1"><g transform="translate(258.795052, 218.455147)"><g><path d="M 22.347656 -14.628906 C 20.589844 -12.304688 16.761719 -11.488281 14.4375 -12.117188 C 11.929688 -12.871094 10.546875 -14.628906 9.917969 -16.699219 C 11.238281 -16.132812 12.679688 -15.757812 14.3125 -15.757812 C 19.210938 -15.757812 23.226562 -19.085938 23.226562 -23.164062 C 23.226562 -27.308594 17.953125 -30.636719 13.058594 -30.636719 C 5.523438 -30.636719 0 -25.425781 0 -19.023438 C 0 -12.617188 5.585938 -7.40625 12.554688 -7.40625 C 17.390625 -7.40625 21.59375 -9.980469 23.667969 -13.6875 C 24.042969 -14.375 22.976562 -15.441406 22.347656 -14.628906 Z M 12.742188 -28.878906 C 14.4375 -28.878906 15.632812 -26.304688 15.632812 -23.164062 C 15.632812 -20.089844 14.4375 -17.515625 12.742188 -17.515625 C 11.238281 -17.515625 9.667969 -19.585938 9.667969 -22.914062 C 9.667969 -26.933594 11.738281 -28.878906 12.742188 -28.878906 Z M 12.742188 -28.878906 "/></g></g></g><g fill="#cb6ce6" fill-opacity="1"><g transform="translate(283.212647, 218.455147)"><g><path d="M 25.175781 -8.726562 C 22.976562 -10.359375 22.601562 -11.738281 22.601562 -14.0625 L 22.601562 -19.210938 C 22.601562 -25.988281 17.515625 -30.636719 10.796875 -30.636719 C 5.023438 -30.636719 1.882812 -27.746094 1.882812 -25.046875 C 1.882812 -21.40625 11.300781 -22.664062 9.980469 -25.738281 C 9.226562 -27.371094 9.226562 -28.878906 10.171875 -28.878906 C 12.429688 -28.878906 13.8125 -24.734375 13.8125 -21.09375 L 13.8125 -19.210938 C 12.429688 -21.03125 10.171875 -22.222656 7.660156 -22.222656 C 3.453125 -22.222656 0 -18.894531 0 -14.816406 C 0 -10.734375 3.453125 -7.40625 7.660156 -7.40625 C 10.171875 -7.40625 12.429688 -8.601562 13.8125 -10.421875 C 13.8125 -10.421875 15.128906 -7.40625 18.519531 -7.40625 L 24.921875 -7.40625 C 25.613281 -7.40625 25.800781 -8.222656 25.175781 -8.726562 Z M 10.421875 -10.796875 C 8.726562 -10.796875 7.34375 -12.617188 7.34375 -14.816406 C 7.34375 -17.011719 8.726562 -18.832031 10.421875 -18.832031 C 12.179688 -18.832031 13.558594 -17.011719 13.558594 -14.816406 C 13.558594 -12.617188 12.179688 -10.796875 10.421875 -10.796875 Z M 10.421875 -10.796875 "/></g></g></g><g fill="#cb6ce6" fill-opacity="1"><g transform="translate(309.513352, 218.455147)"><g><path d="M 25.175781 -8.726562 C 22.976562 -10.359375 22.601562 -11.738281 22.601562 -14.0625 L 22.601562 -19.210938 C 22.601562 -25.988281 17.515625 -30.636719 10.796875 -30.636719 C 5.023438 -30.636719 1.882812 -27.746094 1.882812 -25.046875 C 1.882812 -21.40625 11.300781 -22.664062 9.980469 -25.738281 C 9.226562 -27.371094 9.226562 -28.878906 10.171875 -28.878906 C 12.429688 -28.878906 13.8125 -24.734375 13.8125 -21.09375 L 13.8125 -19.210938 C 12.429688 -21.03125 10.171875 -22.222656 7.660156 -22.222656 C 3.453125 -22.222656 0 -18.894531 0 -14.816406 C 0 -10.734375 3.453125 -7.40625 7.660156 -7.40625 C 10.171875 -7.40625 12.429688 -8.601562 13.8125 -10.421875 C 13.8125 -10.421875 15.128906 -7.40625 18.519531 -7.40625 L 24.921875 -7.40625 C 25.613281 -7.40625 25.800781 -8.222656 25.175781 -8.726562 Z M 10.421875 -10.796875 C 8.726562 -10.796875 7.34375 -12.617188 7.34375 -14.816406 C 7.34375 -17.011719 8.726562 -18.832031 10.421875 -18.832031 C 12.179688 -18.832031 13.558594 -17.011719 13.558594 -14.816406 C 13.558594 -12.617188 12.179688 -10.796875 10.421875 -10.796875 Z M 10.421875 -10.796875 "/></g></g></g><g fill="#e895ff" fill-opacity="1"><g transform="translate(134.505748, 217.474125)"><g><path d="M 26.804688 -18.644531 C 25.175781 -16.449219 20.589844 -9.164062 16.699219 -9.164062 L 13.621094 -9.164062 C 20.527344 -18.269531 24.359375 -29.695312 27.058594 -36.976562 C 27.621094 -38.484375 27.246094 -39.363281 25.863281 -39.363281 L 6.90625 -39.363281 C 3.578125 -39.363281 0 -37.414062 0 -34.277344 C 0 -29.757812 6.65625 -27.9375 8.976562 -32.015625 C 10.734375 -35.21875 12.429688 -37.605469 15.191406 -37.605469 L 15.882812 -37.605469 C 13.9375 -32.203125 7.785156 -15.632812 1.695312 -9.855469 C 0.503906 -8.726562 1.445312 -7.40625 2.886719 -7.40625 L 25.300781 -7.40625 C 26.492188 -7.40625 26.867188 -7.910156 26.996094 -9.164062 C 27.183594 -10.859375 28.125 -17.953125 28.125 -18.394531 C 28.125 -19.085938 27.308594 -19.273438 26.804688 -18.644531 Z M 26.804688 -18.644531 "/></g></g></g><g fill="#e895ff" fill-opacity="1"><g transform="translate(163.128969, 217.474125)"><g><path d="M 25.175781 -8.726562 C 22.976562 -10.359375 22.601562 -11.738281 22.601562 -14.0625 L 22.601562 -19.210938 C 22.601562 -25.988281 17.515625 -30.636719 10.796875 -30.636719 C 5.023438 -30.636719 1.882812 -27.746094 1.882812 -25.046875 C 1.882812 -21.40625 11.300781 -22.664062 9.980469 -25.738281 C 9.226562 -27.371094 9.226562 -28.878906 10.171875 -28.878906 C 12.429688 -28.878906 13.8125 -24.734375 13.8125 -21.09375 L 13.8125 -19.210938 C 12.429688 -21.03125 10.171875 -22.222656 7.660156 -22.222656 C 3.453125 -22.222656 0 -18.894531 0 -14.816406 C 0 -10.734375 3.453125 -7.40625 7.660156 -7.40625 C 10.171875 -7.40625 12.429688 -8.601562 13.8125 -10.421875 C 13.8125 -10.421875 15.128906 -7.40625 18.519531 -7.40625 L 24.921875 -7.40625 C 25.613281 -7.40625 25.800781 -8.222656 25.175781 -8.726562 Z M 10.421875 -10.796875 C 8.726562 -10.796875 7.34375 -12.617188 7.34375 -14.816406 C 7.34375 -17.011719 8.726562 -18.832031 10.421875 -18.832031 C 12.179688 -18.832031 13.558594 -17.011719 13.558594 -14.816406 C 13.558594 -12.617188 12.179688 -10.796875 10.421875 -10.796875 Z M 10.421875 -10.796875 "/></g></g></g><g fill="#e895ff" fill-opacity="1"><g transform="translate(189.429674, 217.474125)"><g><path d="M 13.75 -8.976562 C 11.425781 -10.734375 10.171875 -25.800781 12.367188 -37.792969 C 12.492188 -38.609375 13.058594 -39.675781 11.738281 -39.363281 C 9.417969 -38.921875 6.65625 -34.777344 0.628906 -34.777344 C 0 -34.777344 -0.25 -34.027344 0.375 -33.523438 C 2.574219 -31.890625 2.949219 -30.511719 2.949219 -28.1875 L 2.949219 -14.0625 C 2.949219 -11.738281 2.574219 -10.359375 0.375 -8.726562 C -0.25 -8.222656 0 -7.40625 0.628906 -7.40625 L 13.058594 -7.40625 C 14.4375 -7.40625 14.375 -8.476562 13.75 -8.976562 Z M 13.75 -8.976562 "/></g></g></g><g fill="#e895ff" fill-opacity="1"><g transform="translate(204.055063, 217.474125)"><g><path d="M 22.347656 -14.628906 C 20.589844 -12.304688 16.761719 -11.488281 14.4375 -12.117188 C 11.929688 -12.871094 10.546875 -14.628906 9.917969 -16.699219 C 11.238281 -16.132812 12.679688 -15.757812 14.3125 -15.757812 C 19.210938 -15.757812 23.226562 -19.085938 23.226562 -23.164062 C 23.226562 -27.308594 17.953125 -30.636719 13.058594 -30.636719 C 5.523438 -30.636719 0 -25.425781 0 -19.023438 C 0 -12.617188 5.585938 -7.40625 12.554688 -7.40625 C 17.390625 -7.40625 21.59375 -9.980469 23.667969 -13.6875 C 24.042969 -14.375 22.976562 -15.441406 22.347656 -14.628906 Z M 12.742188 -28.878906 C 14.4375 -28.878906 15.632812 -26.304688 15.632812 -23.164062 C 15.632812 -20.089844 14.4375 -17.515625 12.742188 -17.515625 C 11.238281 -17.515625 9.667969 -19.585938 9.667969 -22.914062 C 9.667969 -26.933594 11.738281 -28.878906 12.742188 -28.878906 Z M 12.742188 -28.878906 "/></g></g></g><g fill="#e895ff" fill-opacity="1"><g transform="translate(228.472658, 217.474125)"><g><path d="M 26.804688 -18.644531 C 25.175781 -16.449219 20.589844 -9.164062 16.699219 -9.164062 L 13.621094 -9.164062 C 20.527344 -18.269531 24.359375 -29.695312 27.058594 -36.976562 C 27.621094 -38.484375 27.246094 -39.363281 25.863281 -39.363281 L 6.90625 -39.363281 C 3.578125 -39.363281 0 -37.414062 0 -34.277344 C 0 -29.757812 6.65625 -27.9375 8.976562 -32.015625 C 10.734375 -35.21875 12.429688 -37.605469 15.191406 -37.605469 L 15.882812 -37.605469 C 13.9375 -32.203125 7.785156 -15.632812 1.695312 -9.855469 C 0.503906 -8.726562 1.445312 -7.40625 2.886719 -7.40625 L 25.300781 -7.40625 C 26.492188 -7.40625 26.867188 -7.910156 26.996094 -9.164062 C 27.183594 -10.859375 28.125 -17.953125 28.125 -18.394531 C 28.125 -19.085938 27.308594 -19.273438 26.804688 -18.644531 Z M 26.804688 -18.644531 "/></g></g></g><g fill="#e895ff" fill-opacity="1"><g transform="translate(257.095879, 217.474125)"><g><path d="M 22.347656 -14.628906 C 20.589844 -12.304688 16.761719 -11.488281 14.4375 -12.117188 C 11.929688 -12.871094 10.546875 -14.628906 9.917969 -16.699219 C 11.238281 -16.132812 12.679688 -15.757812 14.3125 -15.757812 C 19.210938 -15.757812 23.226562 -19.085938 23.226562 -23.164062 C 23.226562 -27.308594 17.953125 -30.636719 13.058594 -30.636719 C 5.523438 -30.636719 0 -25.425781 0 -19.023438 C 0 -12.617188 5.585938 -7.40625 12.554688 -7.40625 C 17.390625 -7.40625 21.59375 -9.980469 23.667969 -13.6875 C 24.042969 -14.375 22.976562 -15.441406 22.347656 -14.628906 Z M 12.742188 -28.878906 C 14.4375 -28.878906 15.632812 -26.304688 15.632812 -23.164062 C 15.632812 -20.089844 14.4375 -17.515625 12.742188 -17.515625 C 11.238281 -17.515625 9.667969 -19.585938 9.667969 -22.914062 C 9.667969 -26.933594 11.738281 -28.878906 12.742188 -28.878906 Z M 12.742188 -28.878906 "/></g></g></g><g fill="#e895ff" fill-opacity="1"><g transform="translate(281.513473, 217.474125)"><g><path d="M 25.175781 -8.726562 C 22.976562 -10.359375 22.601562 -11.738281 22.601562 -14.0625 L 22.601562 -19.210938 C 22.601562 -25.988281 17.515625 -30.636719 10.796875 -30.636719 C 5.023438 -30.636719 1.882812 -27.746094 1.882812 -25.046875 C 1.882812 -21.40625 11.300781 -22.664062 9.980469 -25.738281 C 9.226562 -27.371094 9.226562 -28.878906 10.171875 -28.878906 C 12.429688 -28.878906 13.8125 -24.734375 13.8125 -21.09375 L 13.8125 -19.210938 C 12.429688 -21.03125 10.171875 -22.222656 7.660156 -22.222656 C 3.453125 -22.222656 0 -18.894531 0 -14.816406 C 0 -10.734375 3.453125 -7.40625 7.660156 -7.40625 C 10.171875 -7.40625 12.429688 -8.601562 13.8125 -10.421875 C 13.8125 -10.421875 15.128906 -7.40625 18.519531 -7.40625 L 24.921875 -7.40625 C 25.613281 -7.40625 25.800781 -8.222656 25.175781 -8.726562 Z M 10.421875 -10.796875 C 8.726562 -10.796875 7.34375 -12.617188 7.34375 -14.816406 C 7.34375 -17.011719 8.726562 -18.832031 10.421875 -18.832031 C 12.179688 -18.832031 13.558594 -17.011719 13.558594 -14.816406 C 13.558594 -12.617188 12.179688 -10.796875 10.421875 -10.796875 Z M 10.421875 -10.796875 "/></g></g></g><g fill="#e895ff" fill-opacity="1"><g transform="translate(307.814178, 217.474125)"><g><path d="M 25.175781 -8.726562 C 22.976562 -10.359375 22.601562 -11.738281 22.601562 -14.0625 L 22.601562 -19.210938 C 22.601562 -25.988281 17.515625 -30.636719 10.796875 -30.636719 C 5.023438 -30.636719 1.882812 -27.746094 1.882812 -25.046875 C 1.882812 -21.40625 11.300781 -22.664062 9.980469 -25.738281 C 9.226562 -27.371094 9.226562 -28.878906 10.171875 -28.878906 C 12.429688 -28.878906 13.8125 -24.734375 13.8125 -21.09375 L 13.8125 -19.210938 C 12.429688 -21.03125 10.171875 -22.222656 7.660156 -22.222656 C 3.453125 -22.222656 0 -18.894531 0 -14.816406 C 0 -10.734375 3.453125 -7.40625 7.660156 -7.40625 C 10.171875 -7.40625 12.429688 -8.601562 13.8125 -10.421875 C 13.8125 -10.421875 15.128906 -7.40625 18.519531 -7.40625 L 24.921875 -7.40625 C 25.613281 -7.40625 25.800781 -8.222656 25.175781 -8.726562 Z M 10.421875 -10.796875 C 8.726562 -10.796875 7.34375 -12.617188 7.34375 -14.816406 C 7.34375 -17.011719 8.726562 -18.832031 10.421875 -18.832031 C 12.179688 -18.832031 13.558594 -17.011719 13.558594 -14.816406 C 13.558594 -12.617188 12.179688 -10.796875 10.421875 -10.796875 Z M 10.421875 -10.796875 "/></g></g></g><g clip-path="url(#e8e7c513c3)"><path fill="#e6bcb6" d="M 146.664062 225.082031 C 141.945312 226.195312 141.046875 227.09375 139.933594 231.8125 C 138.824219 227.09375 137.925781 226.195312 133.207031 225.082031 C 137.925781 223.972656 138.824219 223.074219 139.933594 218.355469 C 141.046875 223.074219 141.945312 223.972656 146.664062 225.082031 Z M 146.664062 225.082031 " fill-opacity="1" fill-rule="nonzero"/></g><g clip-path="url(#d1e29eb0a0)"><path fill="#e6bcb6" d="M 292.800781 176.152344 C 297.523438 175.042969 298.421875 174.144531 299.53125 169.425781 C 300.640625 174.144531 301.542969 175.042969 306.261719 176.152344 C 301.542969 177.265625 300.640625 178.164062 299.53125 182.882812 C 298.421875 178.164062 297.523438 177.265625 292.800781 176.152344 Z M 292.800781 176.152344 " fill-opacity="1" fill-rule="nonzero"/></g><g clip-path="url(#f1797052a3)"><path fill="#e6bcb6" d="M 285.488281 164.707031 C 288.859375 163.914062 289.5 163.273438 290.292969 159.902344 C 291.085938 163.273438 291.730469 163.914062 295.101562 164.707031 C 291.730469 165.5 291.085938 166.144531 290.292969 169.515625 C 289.5 166.144531 288.859375 165.5 285.488281 164.707031 Z M 285.488281 164.707031 " fill-opacity="1" fill-rule="nonzero"/></g><g clip-path="url(#d1834e6867)"><path fill="#c88b85" d="M 192.835938 174.714844 C 189.464844 175.507812 188.820312 176.152344 188.027344 179.523438 C 187.234375 176.152344 186.59375 175.507812 183.222656 174.714844 C 186.59375 173.921875 187.234375 173.277344 188.027344 169.910156 C 188.820312 173.277344 189.464844 173.921875 192.835938 174.714844 Z M 192.835938 174.714844 " fill-opacity="1" fill-rule="nonzero"/></g><g clip-path="url(#825a1b402f)"><path fill="#cb6ce6" d="M 123.625 193.09375 C 123.625 194.339844 123.558594 195.582031 123.425781 196.820312 C 123.296875 198.058594 123.101562 199.289062 122.839844 200.511719 C 122.582031 201.730469 122.257812 202.9375 121.867188 204.128906 C 121.480469 205.320312 121.03125 206.492188 120.523438 207.644531 C 120.011719 208.792969 119.441406 209.917969 118.8125 211.015625 C 118.183594 212.113281 117.496094 213.179688 116.757812 214.214844 C 116.015625 215.25 115.21875 216.25 114.375 217.214844 C 113.527344 218.175781 112.632812 219.097656 111.6875 219.976562 C 110.746094 220.859375 109.757812 221.695312 108.726562 222.484375 C 107.695312 223.273438 106.625 224.015625 105.511719 224.707031 C 104.402344 225.398438 103.261719 226.039062 102.082031 226.625 C 100.90625 227.210938 99.703125 227.742188 98.46875 228.21875 C 97.234375 228.695312 95.980469 229.117188 94.703125 229.476562 C 93.425781 229.839844 92.132812 230.140625 90.824219 230.382812 C 89.515625 230.625 88.195312 230.808594 86.867188 230.929688 C 85.539062 231.054688 84.210938 231.113281 82.875 231.113281 C 81.539062 231.113281 80.210938 231.054688 78.882812 230.929688 C 77.554688 230.808594 76.234375 230.625 74.925781 230.382812 C 73.617188 230.140625 72.324219 229.839844 71.046875 229.476562 C 69.769531 229.117188 68.515625 228.695312 67.28125 228.21875 C 66.046875 227.742188 64.84375 227.210938 63.667969 226.625 C 62.488281 226.039062 61.347656 225.398438 60.234375 224.707031 C 59.125 224.015625 58.054688 223.273438 57.023438 222.484375 C 55.992188 221.695312 55.003906 220.859375 54.0625 219.976562 C 53.117188 219.097656 52.222656 218.175781 51.375 217.214844 C 50.53125 216.25 49.734375 215.25 48.992188 214.214844 C 48.253906 213.179688 47.566406 212.113281 46.9375 211.015625 C 46.308594 209.917969 45.738281 208.792969 45.226562 207.644531 C 44.71875 206.492188 44.269531 205.320312 43.882812 204.128906 C 43.492188 202.9375 43.167969 201.730469 42.910156 200.511719 C 42.648438 199.289062 42.453125 198.058594 42.324219 196.820312 C 42.191406 195.582031 42.125 194.339844 42.125 193.09375 C 42.125 191.847656 42.191406 190.605469 42.324219 189.367188 C 42.453125 188.125 42.648438 186.898438 42.910156 185.675781 C 43.167969 184.453125 43.492188 183.246094 43.882812 182.054688 C 44.269531 180.863281 44.71875 179.691406 45.226562 178.542969 C 45.738281 177.390625 46.308594 176.269531 46.9375 175.167969 C 47.566406 174.070312 48.253906 173.003906 48.992188 171.96875 C 49.734375 170.933594 50.53125 169.933594 51.375 168.972656 C 52.222656 168.011719 53.117188 167.089844 54.0625 166.207031 C 55.003906 165.328125 55.992188 164.492188 57.023438 163.703125 C 58.054688 162.914062 59.125 162.171875 60.234375 161.480469 C 61.347656 160.789062 62.488281 160.148438 63.667969 159.5625 C 64.84375 158.972656 66.046875 158.441406 67.28125 157.964844 C 68.515625 157.488281 69.769531 157.070312 71.046875 156.707031 C 72.324219 156.347656 73.617188 156.046875 74.925781 155.800781 C 76.234375 155.558594 77.554688 155.375 78.882812 155.253906 C 80.210938 155.132812 81.539062 155.070312 82.875 155.070312 C 84.210938 155.070312 85.539062 155.132812 86.867188 155.253906 C 88.195312 155.375 89.515625 155.558594 90.824219 155.800781 C 92.132812 156.046875 93.425781 156.347656 94.703125 156.707031 C 95.980469 157.070312 97.234375 157.488281 98.46875 157.964844 C 99.703125 158.441406 100.90625 158.972656 102.082031 159.5625 C 103.261719 160.148438 104.402344 160.789062 105.511719 161.480469 C 106.625 162.171875 107.695312 162.914062 108.726562 163.703125 C 109.757812 164.492188 110.746094 165.328125 111.6875 166.207031 C 112.632812 167.089844 113.527344 168.011719 114.375 168.972656 C 115.21875 169.933594 116.015625 170.933594 116.757812 171.96875 C 117.496094 173.003906 118.183594 174.070312 118.8125 175.167969 C 119.441406 176.269531 120.011719 177.390625 120.523438 178.542969 C 121.03125 179.691406 121.480469 180.863281 121.867188 182.054688 C 122.257812 183.246094 122.582031 184.453125 122.839844 185.675781 C 123.101562 186.898438 123.296875 188.125 123.425781 189.367188 C 123.558594 190.605469 123.625 191.847656 123.625 193.09375 Z M 123.625 193.09375 " fill-opacity="1" fill-rule="nonzero"/></g><path fill="#cb6ce6" d="M 44.929688 180.007812 C 37.5 169.703125 38.296875 156.402344 46.710938 150.28125 C 55.125 144.15625 67.984375 147.5625 75.414062 157.871094 " fill-opacity="1" fill-rule="nonzero"/><path fill="#cb6ce6" d="M 120.820312 180.007812 C 128.25 169.703125 127.453125 156.402344 119.039062 150.28125 C 110.625 144.164062 97.765625 147.5625 90.335938 157.871094 " fill-opacity="1" fill-rule="nonzero"/><path fill="#e895ff" d="M 116.902344 169.769531 C 119.226562 165.0625 117.3125 159.351562 112.613281 157.015625 C 107.914062 154.683594 102.207031 156.589844 99.882812 161.292969 " fill-opacity="1" fill-rule="nonzero"/><path fill="#e895ff" d="M 48.847656 169.769531 C 46.523438 165.0625 48.4375 159.351562 53.136719 157.015625 C 57.835938 154.675781 63.542969 156.589844 65.867188 161.292969 " fill-opacity="1" fill-rule="nonzero"/><path fill="#e895ff" d="M 98.5625 203.015625 C 98.5625 203.949219 98.460938 204.871094 98.261719 205.789062 C 98.058594 206.703125 97.761719 207.59375 97.367188 208.457031 C 96.972656 209.320312 96.492188 210.140625 95.917969 210.914062 C 95.347656 211.691406 94.695312 212.410156 93.96875 213.070312 C 93.238281 213.730469 92.445312 214.320312 91.589844 214.839844 C 90.734375 215.359375 89.828125 215.796875 88.878906 216.152344 C 87.925781 216.511719 86.945312 216.78125 85.933594 216.964844 C 84.925781 217.144531 83.90625 217.238281 82.875 217.238281 C 81.84375 217.238281 80.824219 217.144531 79.816406 216.964844 C 78.804688 216.78125 77.824219 216.511719 76.871094 216.152344 C 75.921875 215.796875 75.015625 215.359375 74.160156 214.839844 C 73.304688 214.320312 72.511719 213.730469 71.78125 213.070312 C 71.054688 212.410156 70.402344 211.691406 69.832031 210.914062 C 69.257812 210.140625 68.777344 209.320312 68.382812 208.457031 C 67.988281 207.59375 67.691406 206.703125 67.488281 205.789062 C 67.289062 204.871094 67.1875 203.949219 67.1875 203.015625 C 67.1875 202.078125 67.289062 201.15625 67.488281 200.238281 C 67.691406 199.324219 67.988281 198.433594 68.382812 197.570312 C 68.777344 196.707031 69.257812 195.886719 69.832031 195.113281 C 70.402344 194.335938 71.054688 193.617188 71.78125 192.957031 C 72.511719 192.296875 73.304688 191.707031 74.160156 191.1875 C 75.015625 190.667969 75.921875 190.230469 76.871094 189.875 C 77.824219 189.515625 78.804688 189.246094 79.816406 189.0625 C 80.824219 188.882812 81.84375 188.789062 82.875 188.789062 C 83.90625 188.789062 84.925781 188.882812 85.933594 189.0625 C 86.945312 189.246094 87.925781 189.515625 88.878906 189.875 C 89.828125 190.230469 90.734375 190.667969 91.589844 191.1875 C 92.445312 191.707031 93.238281 192.296875 93.96875 192.957031 C 94.695312 193.617188 95.347656 194.335938 95.917969 195.113281 C 96.492188 195.886719 96.972656 196.707031 97.367188 197.570312 C 97.761719 198.433594 98.058594 199.324219 98.261719 200.238281 C 98.460938 201.15625 98.5625 202.078125 98.5625 203.015625 Z M 98.5625 203.015625 " fill-opacity="1" fill-rule="nonzero"/><path fill="#000000" d="M 88.449219 197.042969 C 88.449219 199.214844 85.960938 202.941406 82.898438 202.941406 C 79.820312 202.941406 77.34375 199.222656 77.34375 197.042969 C 77.34375 194.863281 79.832031 193.09375 82.898438 193.09375 C 85.964844 193.09375 88.449219 194.863281 88.449219 197.042969 Z M 88.449219 197.042969 " fill-opacity="1" fill-rule="nonzero"/><path fill="#f7f7f7" d="M 85.535156 195.0625 C 85.683594 195.113281 85.820312 195.1875 85.945312 195.285156 C 86.066406 195.386719 86.167969 195.496094 86.242188 195.625 C 86.316406 195.753906 86.363281 195.890625 86.378906 196.03125 C 86.398438 196.167969 86.382812 196.304688 86.339844 196.433594 C 86.292969 196.5625 86.222656 196.679688 86.125 196.78125 C 86.023438 196.878906 85.90625 196.957031 85.769531 197.011719 C 85.628906 197.066406 85.480469 197.097656 85.324219 197.097656 C 85.167969 197.097656 85.015625 197.074219 84.863281 197.023438 C 84.710938 196.96875 84.574219 196.894531 84.453125 196.796875 C 84.332031 196.699219 84.230469 196.585938 84.15625 196.457031 C 84.082031 196.328125 84.035156 196.195312 84.019531 196.054688 C 84 195.914062 84.015625 195.78125 84.058594 195.648438 C 84.105469 195.519531 84.175781 195.40625 84.273438 195.304688 C 84.371094 195.203125 84.492188 195.128906 84.628906 195.070312 C 84.769531 195.015625 84.914062 194.988281 85.074219 194.988281 C 85.230469 194.984375 85.382812 195.011719 85.535156 195.0625 Z M 85.535156 195.0625 " fill-opacity="1" fill-rule="nonzero"/><path fill="#000000" d="M 82.898438 208.199219 C 82.085938 208.199219 81.433594 207.546875 81.433594 206.734375 L 81.433594 200.761719 C 81.433594 199.949219 82.085938 199.292969 82.898438 199.292969 C 83.707031 199.292969 84.359375 199.949219 84.359375 200.761719 L 84.359375 206.734375 C 84.359375 207.539062 83.707031 208.199219 82.898438 208.199219 Z M 82.898438 208.199219 " fill-opacity="1" fill-rule="nonzero"/><path fill="#000000" d="M 83.074219 208.820312 C 81.613281 208.820312 79.101562 208.554688 77.160156 206.964844 C 76.535156 206.453125 76.441406 205.523438 76.949219 204.898438 C 77.460938 204.273438 78.386719 204.179688 79.007812 204.691406 C 81.175781 206.46875 85.558594 205.96875 86.707031 204.984375 C 87.316406 204.445312 88.246094 204.53125 88.765625 205.148438 C 89.300781 205.761719 89.214844 206.695312 88.597656 207.214844 C 87.480469 208.171875 85.484375 208.769531 83.285156 208.820312 C 83.210938 208.820312 83.140625 208.820312 83.074219 208.820312 Z M 83.074219 208.820312 " fill-opacity="1" fill-rule="nonzero"/><path fill="#000000" d="M 95.320312 188.152344 C 95.320312 188.550781 95.242188 188.9375 95.089844 189.308594 C 94.9375 189.679688 94.71875 190.007812 94.433594 190.292969 C 94.152344 190.574219 93.824219 190.796875 93.457031 190.949219 C 93.085938 191.101562 92.699219 191.179688 92.300781 191.179688 C 91.898438 191.179688 91.515625 191.101562 91.144531 190.949219 C 90.773438 190.796875 90.449219 190.574219 90.164062 190.292969 C 89.882812 190.007812 89.664062 189.679688 89.511719 189.308594 C 89.355469 188.9375 89.28125 188.550781 89.28125 188.152344 C 89.28125 187.75 89.355469 187.363281 89.511719 186.992188 C 89.664062 186.621094 89.882812 186.292969 90.164062 186.007812 C 90.449219 185.726562 90.773438 185.507812 91.144531 185.351562 C 91.515625 185.199219 91.898438 185.121094 92.300781 185.121094 C 92.699219 185.121094 93.085938 185.199219 93.457031 185.351562 C 93.824219 185.507812 94.152344 185.726562 94.433594 186.007812 C 94.71875 186.292969 94.9375 186.621094 95.089844 186.992188 C 95.242188 187.363281 95.320312 187.75 95.320312 188.152344 Z M 95.320312 188.152344 " fill-opacity="1" fill-rule="nonzero"/><path fill="#000000" d="M 76.449219 188.09375 C 76.476562 189.761719 75.15625 191.128906 73.5 191.15625 C 71.84375 191.1875 70.472656 189.863281 70.445312 188.199219 C 70.414062 186.53125 71.734375 185.164062 73.394531 185.136719 C 75.0625 185.105469 76.433594 186.4375 76.449219 188.09375 Z M 76.449219 188.09375 " fill-opacity="1" fill-rule="nonzero"/></svg>