<svg xmlns="http://www.w3.org/2000/svg" xmlns:xlink="http://www.w3.org/1999/xlink" width="192" zoomAndPan="magnify" viewBox="0 0 144 38.249999" height="51" preserveAspectRatio="xMidYMid meet" version="1.0"><defs><g/><clipPath id="901dc678cd"><path d="M 55.347656 26.425781 L 60.378906 26.425781 L 60.378906 31.457031 L 55.347656 31.457031 Z M 55.347656 26.425781 " clip-rule="nonzero"/></clipPath><clipPath id="1e60eb4331"><path d="M 115.039062 8.125 L 120.070312 8.125 L 120.070312 13.15625 L 115.039062 13.15625 Z M 115.039062 8.125 " clip-rule="nonzero"/></clipPath><clipPath id="fa5a0d775f"><path d="M 112.300781 4.5625 L 115.894531 4.5625 L 115.894531 8.160156 L 112.300781 8.160156 Z M 112.300781 4.5625 " clip-rule="nonzero"/></clipPath><clipPath id="a1ed7da7ae"><path d="M 74.054688 8.304688 L 77.648438 8.304688 L 77.648438 11.898438 L 74.054688 11.898438 Z M 74.054688 8.304688 " clip-rule="nonzero"/></clipPath><clipPath id="1cb9625fab"><path d="M 14 6 L 46 6 L 46 34.6875 L 14 34.6875 Z M 14 6 " clip-rule="nonzero"/></clipPath></defs><g fill="#cb6ce6" fill-opacity="1"><g transform="translate(56.470132, 26.461708)"><g><path d="M 10.023438 -6.972656 C 9.414062 -6.152344 7.699219 -3.429688 6.246094 -3.429688 L 5.09375 -3.429688 C 7.675781 -6.832031 9.109375 -11.105469 10.121094 -13.828125 C 10.332031 -14.390625 10.191406 -14.722656 9.671875 -14.722656 L 2.582031 -14.722656 C 1.339844 -14.722656 0 -13.992188 0 -12.820312 C 0 -11.128906 2.488281 -10.449219 3.355469 -11.972656 C 4.015625 -13.171875 4.648438 -14.0625 5.683594 -14.0625 L 5.941406 -14.0625 C 5.210938 -12.042969 2.910156 -5.847656 0.632812 -3.6875 C 0.1875 -3.261719 0.539062 -2.769531 1.078125 -2.769531 L 9.460938 -2.769531 C 9.90625 -2.769531 10.046875 -2.957031 10.097656 -3.429688 C 10.167969 -4.0625 10.519531 -6.714844 10.519531 -6.878906 C 10.519531 -7.136719 10.214844 -7.207031 10.023438 -6.972656 Z M 10.023438 -6.972656 "/></g></g></g><g fill="#cb6ce6" fill-opacity="1"><g transform="translate(67.174995, 26.461708)"><g><path d="M 9.414062 -3.261719 C 8.59375 -3.875 8.453125 -4.390625 8.453125 -5.257812 L 8.453125 -7.183594 C 8.453125 -9.71875 6.550781 -11.457031 4.039062 -11.457031 C 1.878906 -11.457031 0.703125 -10.378906 0.703125 -9.367188 C 0.703125 -8.007812 4.226562 -8.476562 3.734375 -9.625 C 3.453125 -10.238281 3.453125 -10.800781 3.804688 -10.800781 C 4.648438 -10.800781 5.164062 -9.25 5.164062 -7.890625 L 5.164062 -7.183594 C 4.648438 -7.867188 3.804688 -8.3125 2.863281 -8.3125 C 1.292969 -8.3125 0 -7.066406 0 -5.539062 C 0 -4.015625 1.292969 -2.769531 2.863281 -2.769531 C 3.804688 -2.769531 4.648438 -3.214844 5.164062 -3.898438 C 5.164062 -3.898438 5.660156 -2.769531 6.925781 -2.769531 L 9.320312 -2.769531 C 9.578125 -2.769531 9.648438 -3.074219 9.414062 -3.261719 Z M 3.898438 -4.039062 C 3.261719 -4.039062 2.746094 -4.71875 2.746094 -5.539062 C 2.746094 -6.363281 3.261719 -7.042969 3.898438 -7.042969 C 4.554688 -7.042969 5.070312 -6.363281 5.070312 -5.539062 C 5.070312 -4.71875 4.554688 -4.039062 3.898438 -4.039062 Z M 3.898438 -4.039062 "/></g></g></g><g fill="#cb6ce6" fill-opacity="1"><g transform="translate(77.011254, 26.461708)"><g><path d="M 5.140625 -3.355469 C 4.273438 -4.015625 3.804688 -9.648438 4.625 -14.132812 C 4.671875 -14.4375 4.882812 -14.839844 4.390625 -14.722656 C 3.523438 -14.554688 2.488281 -13.007812 0.234375 -13.007812 C 0 -13.007812 -0.09375 -12.726562 0.140625 -12.539062 C 0.960938 -11.925781 1.101562 -11.410156 1.101562 -10.542969 L 1.101562 -5.257812 C 1.101562 -4.390625 0.960938 -3.875 0.140625 -3.261719 C -0.09375 -3.074219 0 -2.769531 0.234375 -2.769531 L 4.882812 -2.769531 C 5.398438 -2.769531 5.375 -3.167969 5.140625 -3.355469 Z M 5.140625 -3.355469 "/></g></g></g><g fill="#cb6ce6" fill-opacity="1"><g transform="translate(82.481035, 26.461708)"><g><path d="M 8.359375 -5.46875 C 7.699219 -4.601562 6.269531 -4.296875 5.398438 -4.53125 C 4.460938 -4.8125 3.945312 -5.46875 3.710938 -6.246094 C 4.203125 -6.035156 4.742188 -5.894531 5.351562 -5.894531 C 7.183594 -5.894531 8.6875 -7.136719 8.6875 -8.664062 C 8.6875 -10.214844 6.714844 -11.457031 4.882812 -11.457031 C 2.066406 -11.457031 0 -9.507812 0 -7.113281 C 0 -4.71875 2.089844 -2.769531 4.695312 -2.769531 C 6.503906 -2.769531 8.078125 -3.734375 8.851562 -5.117188 C 8.992188 -5.375 8.59375 -5.777344 8.359375 -5.46875 Z M 4.765625 -10.800781 C 5.398438 -10.800781 5.847656 -9.835938 5.847656 -8.664062 C 5.847656 -7.511719 5.398438 -6.550781 4.765625 -6.550781 C 4.203125 -6.550781 3.617188 -7.324219 3.617188 -8.570312 C 3.617188 -10.070312 4.390625 -10.800781 4.765625 -10.800781 Z M 4.765625 -10.800781 "/></g></g></g><g fill="#cb6ce6" fill-opacity="1"><g transform="translate(91.613026, 26.461708)"><g><path d="M 10.023438 -6.972656 C 9.414062 -6.152344 7.699219 -3.429688 6.246094 -3.429688 L 5.09375 -3.429688 C 7.675781 -6.832031 9.109375 -11.105469 10.121094 -13.828125 C 10.332031 -14.390625 10.191406 -14.722656 9.671875 -14.722656 L 2.582031 -14.722656 C 1.339844 -14.722656 0 -13.992188 0 -12.820312 C 0 -11.128906 2.488281 -10.449219 3.355469 -11.972656 C 4.015625 -13.171875 4.648438 -14.0625 5.683594 -14.0625 L 5.941406 -14.0625 C 5.210938 -12.042969 2.910156 -5.847656 0.632812 -3.6875 C 0.1875 -3.261719 0.539062 -2.769531 1.078125 -2.769531 L 9.460938 -2.769531 C 9.90625 -2.769531 10.046875 -2.957031 10.097656 -3.429688 C 10.167969 -4.0625 10.519531 -6.714844 10.519531 -6.878906 C 10.519531 -7.136719 10.214844 -7.207031 10.023438 -6.972656 Z M 10.023438 -6.972656 "/></g></g></g><g fill="#cb6ce6" fill-opacity="1"><g transform="translate(102.317888, 26.461708)"><g><path d="M 8.359375 -5.46875 C 7.699219 -4.601562 6.269531 -4.296875 5.398438 -4.53125 C 4.460938 -4.8125 3.945312 -5.46875 3.710938 -6.246094 C 4.203125 -6.035156 4.742188 -5.894531 5.351562 -5.894531 C 7.183594 -5.894531 8.6875 -7.136719 8.6875 -8.664062 C 8.6875 -10.214844 6.714844 -11.457031 4.882812 -11.457031 C 2.066406 -11.457031 0 -9.507812 0 -7.113281 C 0 -4.71875 2.089844 -2.769531 4.695312 -2.769531 C 6.503906 -2.769531 8.078125 -3.734375 8.851562 -5.117188 C 8.992188 -5.375 8.59375 -5.777344 8.359375 -5.46875 Z M 4.765625 -10.800781 C 5.398438 -10.800781 5.847656 -9.835938 5.847656 -8.664062 C 5.847656 -7.511719 5.398438 -6.550781 4.765625 -6.550781 C 4.203125 -6.550781 3.617188 -7.324219 3.617188 -8.570312 C 3.617188 -10.070312 4.390625 -10.800781 4.765625 -10.800781 Z M 4.765625 -10.800781 "/></g></g></g><g fill="#cb6ce6" fill-opacity="1"><g transform="translate(111.449878, 26.461708)"><g><path d="M 9.414062 -3.261719 C 8.59375 -3.875 8.453125 -4.390625 8.453125 -5.257812 L 8.453125 -7.183594 C 8.453125 -9.71875 6.550781 -11.457031 4.039062 -11.457031 C 1.878906 -11.457031 0.703125 -10.378906 0.703125 -9.367188 C 0.703125 -8.007812 4.226562 -8.476562 3.734375 -9.625 C 3.453125 -10.238281 3.453125 -10.800781 3.804688 -10.800781 C 4.648438 -10.800781 5.164062 -9.25 5.164062 -7.890625 L 5.164062 -7.183594 C 4.648438 -7.867188 3.804688 -8.3125 2.863281 -8.3125 C 1.292969 -8.3125 0 -7.066406 0 -5.539062 C 0 -4.015625 1.292969 -2.769531 2.863281 -2.769531 C 3.804688 -2.769531 4.648438 -3.214844 5.164062 -3.898438 C 5.164062 -3.898438 5.660156 -2.769531 6.925781 -2.769531 L 9.320312 -2.769531 C 9.578125 -2.769531 9.648438 -3.074219 9.414062 -3.261719 Z M 3.898438 -4.039062 C 3.261719 -4.039062 2.746094 -4.71875 2.746094 -5.539062 C 2.746094 -6.363281 3.261719 -7.042969 3.898438 -7.042969 C 4.554688 -7.042969 5.070312 -6.363281 5.070312 -5.539062 C 5.070312 -4.71875 4.554688 -4.039062 3.898438 -4.039062 Z M 3.898438 -4.039062 "/></g></g></g><g fill="#cb6ce6" fill-opacity="1"><g transform="translate(121.286138, 26.461708)"><g><path d="M 9.414062 -3.261719 C 8.59375 -3.875 8.453125 -4.390625 8.453125 -5.257812 L 8.453125 -7.183594 C 8.453125 -9.71875 6.550781 -11.457031 4.039062 -11.457031 C 1.878906 -11.457031 0.703125 -10.378906 0.703125 -9.367188 C 0.703125 -8.007812 4.226562 -8.476562 3.734375 -9.625 C 3.453125 -10.238281 3.453125 -10.800781 3.804688 -10.800781 C 4.648438 -10.800781 5.164062 -9.25 5.164062 -7.890625 L 5.164062 -7.183594 C 4.648438 -7.867188 3.804688 -8.3125 2.863281 -8.3125 C 1.292969 -8.3125 0 -7.066406 0 -5.539062 C 0 -4.015625 1.292969 -2.769531 2.863281 -2.769531 C 3.804688 -2.769531 4.648438 -3.214844 5.164062 -3.898438 C 5.164062 -3.898438 5.660156 -2.769531 6.925781 -2.769531 L 9.320312 -2.769531 C 9.578125 -2.769531 9.648438 -3.074219 9.414062 -3.261719 Z M 3.898438 -4.039062 C 3.261719 -4.039062 2.746094 -4.71875 2.746094 -5.539062 C 2.746094 -6.363281 3.261719 -7.042969 3.898438 -7.042969 C 4.554688 -7.042969 5.070312 -6.363281 5.070312 -5.539062 C 5.070312 -4.71875 4.554688 -4.039062 3.898438 -4.039062 Z M 3.898438 -4.039062 "/></g></g></g><g fill="#e895ff" fill-opacity="1"><g transform="translate(55.834655, 26.094816)"><g><path d="M 10.023438 -6.972656 C 9.414062 -6.152344 7.699219 -3.429688 6.246094 -3.429688 L 5.09375 -3.429688 C 7.675781 -6.832031 9.109375 -11.105469 10.121094 -13.828125 C 10.332031 -14.390625 10.191406 -14.722656 9.671875 -14.722656 L 2.582031 -14.722656 C 1.339844 -14.722656 0 -13.992188 0 -12.820312 C 0 -11.128906 2.488281 -10.449219 3.355469 -11.972656 C 4.015625 -13.171875 4.648438 -14.0625 5.683594 -14.0625 L 5.941406 -14.0625 C 5.210938 -12.042969 2.910156 -5.847656 0.632812 -3.6875 C 0.1875 -3.261719 0.539062 -2.769531 1.078125 -2.769531 L 9.460938 -2.769531 C 9.90625 -2.769531 10.046875 -2.957031 10.097656 -3.429688 C 10.167969 -4.0625 10.519531 -6.714844 10.519531 -6.878906 C 10.519531 -7.136719 10.214844 -7.207031 10.023438 -6.972656 Z M 10.023438 -6.972656 "/></g></g></g><g fill="#e895ff" fill-opacity="1"><g transform="translate(66.539517, 26.094816)"><g><path d="M 9.414062 -3.261719 C 8.59375 -3.875 8.453125 -4.390625 8.453125 -5.257812 L 8.453125 -7.183594 C 8.453125 -9.71875 6.550781 -11.457031 4.039062 -11.457031 C 1.878906 -11.457031 0.703125 -10.378906 0.703125 -9.367188 C 0.703125 -8.007812 4.226562 -8.476562 3.734375 -9.625 C 3.453125 -10.238281 3.453125 -10.800781 3.804688 -10.800781 C 4.648438 -10.800781 5.164062 -9.25 5.164062 -7.890625 L 5.164062 -7.183594 C 4.648438 -7.867188 3.804688 -8.3125 2.863281 -8.3125 C 1.292969 -8.3125 0 -7.066406 0 -5.539062 C 0 -4.015625 1.292969 -2.769531 2.863281 -2.769531 C 3.804688 -2.769531 4.648438 -3.214844 5.164062 -3.898438 C 5.164062 -3.898438 5.660156 -2.769531 6.925781 -2.769531 L 9.320312 -2.769531 C 9.578125 -2.769531 9.648438 -3.074219 9.414062 -3.261719 Z M 3.898438 -4.039062 C 3.261719 -4.039062 2.746094 -4.71875 2.746094 -5.539062 C 2.746094 -6.363281 3.261719 -7.042969 3.898438 -7.042969 C 4.554688 -7.042969 5.070312 -6.363281 5.070312 -5.539062 C 5.070312 -4.71875 4.554688 -4.039062 3.898438 -4.039062 Z M 3.898438 -4.039062 "/></g></g></g><g fill="#e895ff" fill-opacity="1"><g transform="translate(76.375776, 26.094816)"><g><path d="M 5.140625 -3.355469 C 4.273438 -4.015625 3.804688 -9.648438 4.625 -14.132812 C 4.671875 -14.4375 4.882812 -14.839844 4.390625 -14.722656 C 3.523438 -14.554688 2.488281 -13.007812 0.234375 -13.007812 C 0 -13.007812 -0.09375 -12.726562 0.140625 -12.539062 C 0.960938 -11.925781 1.101562 -11.410156 1.101562 -10.542969 L 1.101562 -5.257812 C 1.101562 -4.390625 0.960938 -3.875 0.140625 -3.261719 C -0.09375 -3.074219 0 -2.769531 0.234375 -2.769531 L 4.882812 -2.769531 C 5.398438 -2.769531 5.375 -3.167969 5.140625 -3.355469 Z M 5.140625 -3.355469 "/></g></g></g><g fill="#e895ff" fill-opacity="1"><g transform="translate(81.845558, 26.094816)"><g><path d="M 8.359375 -5.46875 C 7.699219 -4.601562 6.269531 -4.296875 5.398438 -4.53125 C 4.460938 -4.8125 3.945312 -5.46875 3.710938 -6.246094 C 4.203125 -6.035156 4.742188 -5.894531 5.351562 -5.894531 C 7.183594 -5.894531 8.6875 -7.136719 8.6875 -8.664062 C 8.6875 -10.214844 6.714844 -11.457031 4.882812 -11.457031 C 2.066406 -11.457031 0 -9.507812 0 -7.113281 C 0 -4.71875 2.089844 -2.769531 4.695312 -2.769531 C 6.503906 -2.769531 8.078125 -3.734375 8.851562 -5.117188 C 8.992188 -5.375 8.59375 -5.777344 8.359375 -5.46875 Z M 4.765625 -10.800781 C 5.398438 -10.800781 5.847656 -9.835938 5.847656 -8.664062 C 5.847656 -7.511719 5.398438 -6.550781 4.765625 -6.550781 C 4.203125 -6.550781 3.617188 -7.324219 3.617188 -8.570312 C 3.617188 -10.070312 4.390625 -10.800781 4.765625 -10.800781 Z M 4.765625 -10.800781 "/></g></g></g><g fill="#e895ff" fill-opacity="1"><g transform="translate(90.977549, 26.094816)"><g><path d="M 10.023438 -6.972656 C 9.414062 -6.152344 7.699219 -3.429688 6.246094 -3.429688 L 5.09375 -3.429688 C 7.675781 -6.832031 9.109375 -11.105469 10.121094 -13.828125 C 10.332031 -14.390625 10.191406 -14.722656 9.671875 -14.722656 L 2.582031 -14.722656 C 1.339844 -14.722656 0 -13.992188 0 -12.820312 C 0 -11.128906 2.488281 -10.449219 3.355469 -11.972656 C 4.015625 -13.171875 4.648438 -14.0625 5.683594 -14.0625 L 5.941406 -14.0625 C 5.210938 -12.042969 2.910156 -5.847656 0.632812 -3.6875 C 0.1875 -3.261719 0.539062 -2.769531 1.078125 -2.769531 L 9.460938 -2.769531 C 9.90625 -2.769531 10.046875 -2.957031 10.097656 -3.429688 C 10.167969 -4.0625 10.519531 -6.714844 10.519531 -6.878906 C 10.519531 -7.136719 10.214844 -7.207031 10.023438 -6.972656 Z M 10.023438 -6.972656 "/></g></g></g><g fill="#e895ff" fill-opacity="1"><g transform="translate(101.682411, 26.094816)"><g><path d="M 8.359375 -5.46875 C 7.699219 -4.601562 6.269531 -4.296875 5.398438 -4.53125 C 4.460938 -4.8125 3.945312 -5.46875 3.710938 -6.246094 C 4.203125 -6.035156 4.742188 -5.894531 5.351562 -5.894531 C 7.183594 -5.894531 8.6875 -7.136719 8.6875 -8.664062 C 8.6875 -10.214844 6.714844 -11.457031 4.882812 -11.457031 C 2.066406 -11.457031 0 -9.507812 0 -7.113281 C 0 -4.71875 2.089844 -2.769531 4.695312 -2.769531 C 6.503906 -2.769531 8.078125 -3.734375 8.851562 -5.117188 C 8.992188 -5.375 8.59375 -5.777344 8.359375 -5.46875 Z M 4.765625 -10.800781 C 5.398438 -10.800781 5.847656 -9.835938 5.847656 -8.664062 C 5.847656 -7.511719 5.398438 -6.550781 4.765625 -6.550781 C 4.203125 -6.550781 3.617188 -7.324219 3.617188 -8.570312 C 3.617188 -10.070312 4.390625 -10.800781 4.765625 -10.800781 Z M 4.765625 -10.800781 "/></g></g></g><g fill="#e895ff" fill-opacity="1"><g transform="translate(110.814401, 26.094816)"><g><path d="M 9.414062 -3.261719 C 8.59375 -3.875 8.453125 -4.390625 8.453125 -5.257812 L 8.453125 -7.183594 C 8.453125 -9.71875 6.550781 -11.457031 4.039062 -11.457031 C 1.878906 -11.457031 0.703125 -10.378906 0.703125 -9.367188 C 0.703125 -8.007812 4.226562 -8.476562 3.734375 -9.625 C 3.453125 -10.238281 3.453125 -10.800781 3.804688 -10.800781 C 4.648438 -10.800781 5.164062 -9.25 5.164062 -7.890625 L 5.164062 -7.183594 C 4.648438 -7.867188 3.804688 -8.3125 2.863281 -8.3125 C 1.292969 -8.3125 0 -7.066406 0 -5.539062 C 0 -4.015625 1.292969 -2.769531 2.863281 -2.769531 C 3.804688 -2.769531 4.648438 -3.214844 5.164062 -3.898438 C 5.164062 -3.898438 5.660156 -2.769531 6.925781 -2.769531 L 9.320312 -2.769531 C 9.578125 -2.769531 9.648438 -3.074219 9.414062 -3.261719 Z M 3.898438 -4.039062 C 3.261719 -4.039062 2.746094 -4.71875 2.746094 -5.539062 C 2.746094 -6.363281 3.261719 -7.042969 3.898438 -7.042969 C 4.554688 -7.042969 5.070312 -6.363281 5.070312 -5.539062 C 5.070312 -4.71875 4.554688 -4.039062 3.898438 -4.039062 Z M 3.898438 -4.039062 "/></g></g></g><g fill="#e895ff" fill-opacity="1"><g transform="translate(120.65066, 26.094816)"><g><path d="M 9.414062 -3.261719 C 8.59375 -3.875 8.453125 -4.390625 8.453125 -5.257812 L 8.453125 -7.183594 C 8.453125 -9.71875 6.550781 -11.457031 4.039062 -11.457031 C 1.878906 -11.457031 0.703125 -10.378906 0.703125 -9.367188 C 0.703125 -8.007812 4.226562 -8.476562 3.734375 -9.625 C 3.453125 -10.238281 3.453125 -10.800781 3.804688 -10.800781 C 4.648438 -10.800781 5.164062 -9.25 5.164062 -7.890625 L 5.164062 -7.183594 C 4.648438 -7.867188 3.804688 -8.3125 2.863281 -8.3125 C 1.292969 -8.3125 0 -7.066406 0 -5.539062 C 0 -4.015625 1.292969 -2.769531 2.863281 -2.769531 C 3.804688 -2.769531 4.648438 -3.214844 5.164062 -3.898438 C 5.164062 -3.898438 5.660156 -2.769531 6.925781 -2.769531 L 9.320312 -2.769531 C 9.578125 -2.769531 9.648438 -3.074219 9.414062 -3.261719 Z M 3.898438 -4.039062 C 3.261719 -4.039062 2.746094 -4.71875 2.746094 -5.539062 C 2.746094 -6.363281 3.261719 -7.042969 3.898438 -7.042969 C 4.554688 -7.042969 5.070312 -6.363281 5.070312 -5.539062 C 5.070312 -4.71875 4.554688 -4.039062 3.898438 -4.039062 Z M 3.898438 -4.039062 "/></g></g></g><g clip-path="url(#901dc678cd)"><path fill="#e6bcb6" d="M 60.382812 28.941406 C 58.617188 29.355469 58.28125 29.691406 57.863281 31.457031 C 57.449219 29.691406 57.113281 29.355469 55.347656 28.941406 C 57.113281 28.527344 57.449219 28.1875 57.863281 26.425781 C 58.28125 28.1875 58.617188 28.527344 60.382812 28.941406 Z M 60.382812 28.941406 " fill-opacity="1" fill-rule="nonzero"/></g><g clip-path="url(#1e60eb4331)"><path fill="#e6bcb6" d="M 115.035156 10.640625 C 116.800781 10.226562 117.136719 9.890625 117.554688 8.125 C 117.96875 9.890625 118.304688 10.226562 120.070312 10.640625 C 118.304688 11.054688 117.96875 11.394531 117.554688 13.15625 C 117.136719 11.394531 116.800781 11.054688 115.035156 10.640625 Z M 115.035156 10.640625 " fill-opacity="1" fill-rule="nonzero"/></g><g clip-path="url(#fa5a0d775f)"><path fill="#e6bcb6" d="M 112.300781 6.359375 C 113.5625 6.0625 113.800781 5.824219 114.097656 4.5625 C 114.394531 5.824219 114.636719 6.0625 115.894531 6.359375 C 114.636719 6.65625 114.394531 6.898438 114.097656 8.160156 C 113.800781 6.898438 113.5625 6.65625 112.300781 6.359375 Z M 112.300781 6.359375 " fill-opacity="1" fill-rule="nonzero"/></g><g clip-path="url(#a1ed7da7ae)"><path fill="#c88b85" d="M 77.648438 10.101562 C 76.386719 10.398438 76.148438 10.640625 75.851562 11.902344 C 75.554688 10.640625 75.316406 10.398438 74.054688 10.101562 C 75.316406 9.804688 75.554688 9.566406 75.851562 8.304688 C 76.148438 9.566406 76.386719 9.804688 77.648438 10.101562 Z M 77.648438 10.101562 " fill-opacity="1" fill-rule="nonzero"/></g><g clip-path="url(#1cb9625fab)"><path fill="#cb6ce6" d="M 45.371094 20.53125 C 45.371094 21.460938 45.273438 22.382812 45.078125 23.292969 C 44.882812 24.203125 44.597656 25.085938 44.214844 25.945312 C 43.832031 26.804688 43.363281 27.617188 42.808594 28.390625 C 42.257812 29.160156 41.625 29.875 40.921875 30.53125 C 40.214844 31.191406 39.449219 31.777344 38.617188 32.292969 C 37.789062 32.808594 36.914062 33.242188 35.992188 33.597656 C 35.070312 33.953125 34.121094 34.222656 33.140625 34.402344 C 32.164062 34.585938 31.175781 34.675781 30.175781 34.675781 C 29.179688 34.675781 28.191406 34.585938 27.214844 34.402344 C 26.234375 34.222656 25.285156 33.953125 24.363281 33.597656 C 23.441406 33.242188 22.566406 32.808594 21.738281 32.292969 C 20.90625 31.777344 20.140625 31.191406 19.433594 30.53125 C 18.730469 29.875 18.097656 29.160156 17.542969 28.390625 C 16.992188 27.617188 16.523438 26.804688 16.140625 25.945312 C 15.757812 25.085938 15.46875 24.203125 15.277344 23.292969 C 15.082031 22.382812 14.984375 21.460938 14.984375 20.53125 C 14.984375 19.605469 15.082031 18.683594 15.277344 17.773438 C 15.46875 16.863281 15.757812 15.980469 16.140625 15.121094 C 16.523438 14.261719 16.992188 13.449219 17.542969 12.675781 C 18.097656 11.902344 18.730469 11.1875 19.433594 10.53125 C 20.140625 9.875 20.90625 9.289062 21.738281 8.773438 C 22.566406 8.257812 23.441406 7.820312 24.363281 7.464844 C 25.285156 7.113281 26.234375 6.84375 27.214844 6.660156 C 28.191406 6.480469 29.179688 6.390625 30.175781 6.390625 C 31.175781 6.390625 32.164062 6.480469 33.140625 6.660156 C 34.121094 6.84375 35.070312 7.113281 35.992188 7.464844 C 36.914062 7.820312 37.789062 8.257812 38.617188 8.773438 C 39.449219 9.289062 40.214844 9.875 40.921875 10.53125 C 41.625 11.1875 42.257812 11.902344 42.808594 12.675781 C 43.363281 13.449219 43.832031 14.261719 44.214844 15.121094 C 44.597656 15.980469 44.882812 16.863281 45.078125 17.773438 C 45.273438 18.683594 45.371094 19.605469 45.371094 20.53125 Z M 45.371094 20.53125 " fill-opacity="1" fill-rule="nonzero"/></g><path fill="#cb6ce6" d="M 16.03125 15.664062 C 13.257812 11.832031 13.554688 6.886719 16.691406 4.609375 C 19.832031 2.332031 24.625 3.597656 27.394531 7.429688 " fill-opacity="1" fill-rule="nonzero"/><path fill="#cb6ce6" d="M 44.324219 15.664062 C 47.09375 11.832031 46.796875 6.886719 43.660156 4.609375 C 40.523438 2.332031 35.730469 3.597656 32.957031 7.429688 " fill-opacity="1" fill-rule="nonzero"/><path fill="#e895ff" d="M 42.863281 11.855469 C 43.730469 10.105469 43.015625 7.984375 41.265625 7.113281 C 39.515625 6.246094 37.386719 6.953125 36.519531 8.703125 " fill-opacity="1" fill-rule="nonzero"/><path fill="#e895ff" d="M 17.488281 11.855469 C 16.625 10.105469 17.335938 7.984375 19.089844 7.113281 C 20.839844 6.242188 22.96875 6.953125 23.835938 8.703125 " fill-opacity="1" fill-rule="nonzero"/><path fill="#e895ff" d="M 36.027344 24.222656 C 36.027344 24.570312 35.988281 24.914062 35.914062 25.253906 C 35.839844 25.597656 35.726562 25.925781 35.582031 26.246094 C 35.433594 26.570312 35.253906 26.875 35.039062 27.160156 C 34.828125 27.449219 34.585938 27.71875 34.3125 27.964844 C 34.042969 28.210938 33.746094 28.429688 33.425781 28.621094 C 33.109375 28.816406 32.769531 28.976562 32.414062 29.109375 C 32.0625 29.242188 31.695312 29.34375 31.320312 29.410156 C 30.941406 29.480469 30.5625 29.511719 30.175781 29.511719 C 29.792969 29.511719 29.414062 29.480469 29.035156 29.410156 C 28.660156 29.34375 28.292969 29.242188 27.9375 29.109375 C 27.585938 28.976562 27.246094 28.816406 26.929688 28.621094 C 26.609375 28.429688 26.3125 28.210938 26.042969 27.964844 C 25.769531 27.71875 25.527344 27.449219 25.3125 27.160156 C 25.101562 26.875 24.921875 26.570312 24.773438 26.246094 C 24.625 25.925781 24.515625 25.597656 24.441406 25.253906 C 24.367188 24.914062 24.328125 24.570312 24.328125 24.222656 C 24.328125 23.875 24.367188 23.53125 24.441406 23.191406 C 24.515625 22.851562 24.625 22.519531 24.773438 22.199219 C 24.921875 21.878906 25.101562 21.574219 25.3125 21.285156 C 25.527344 20.996094 25.769531 20.726562 26.042969 20.480469 C 26.3125 20.238281 26.609375 20.015625 26.929688 19.824219 C 27.246094 19.632812 27.585938 19.46875 27.9375 19.335938 C 28.292969 19.203125 28.660156 19.101562 29.035156 19.035156 C 29.414062 18.964844 29.792969 18.933594 30.175781 18.933594 C 30.5625 18.933594 30.941406 18.964844 31.320312 19.035156 C 31.695312 19.101562 32.0625 19.203125 32.414062 19.335938 C 32.769531 19.46875 33.109375 19.632812 33.425781 19.824219 C 33.746094 20.015625 34.042969 20.238281 34.3125 20.480469 C 34.585938 20.726562 34.828125 20.996094 35.039062 21.285156 C 35.253906 21.574219 35.433594 21.878906 35.582031 22.199219 C 35.726562 22.519531 35.839844 22.851562 35.914062 23.191406 C 35.988281 23.53125 36.027344 23.875 36.027344 24.222656 Z M 36.027344 24.222656 " fill-opacity="1" fill-rule="nonzero"/><path fill="#000000" d="M 32.253906 22 C 32.253906 22.808594 31.328125 24.195312 30.183594 24.195312 C 29.039062 24.195312 28.117188 22.8125 28.117188 22 C 28.117188 21.191406 29.042969 20.53125 30.183594 20.53125 C 31.328125 20.53125 32.253906 21.191406 32.253906 22 Z M 32.253906 22 " fill-opacity="1" fill-rule="nonzero"/><path fill="#f7f7f7" d="M 31.167969 21.265625 C 31.285156 21.304688 31.375 21.375 31.433594 21.476562 C 31.492188 21.574219 31.503906 21.675781 31.46875 21.777344 C 31.433594 21.875 31.363281 21.949219 31.257812 21.992188 C 31.148438 22.035156 31.035156 22.035156 30.917969 21.996094 C 30.800781 21.953125 30.714844 21.882812 30.65625 21.785156 C 30.597656 21.683594 30.585938 21.585938 30.617188 21.484375 C 30.652344 21.382812 30.722656 21.3125 30.832031 21.269531 C 30.9375 21.226562 31.050781 21.226562 31.167969 21.265625 Z M 31.167969 21.265625 " fill-opacity="1" fill-rule="nonzero"/><path fill="#000000" d="M 30.183594 26.152344 C 29.882812 26.152344 29.640625 25.910156 29.640625 25.605469 L 29.640625 23.386719 C 29.640625 23.082031 29.882812 22.839844 30.183594 22.839844 C 30.488281 22.839844 30.730469 23.082031 30.730469 23.386719 L 30.730469 25.605469 C 30.730469 25.90625 30.488281 26.152344 30.183594 26.152344 Z M 30.183594 26.152344 " fill-opacity="1" fill-rule="nonzero"/><path fill="#000000" d="M 30.253906 26.382812 C 29.707031 26.382812 28.769531 26.285156 28.046875 25.691406 C 27.8125 25.503906 27.777344 25.15625 27.96875 24.925781 C 28.160156 24.691406 28.503906 24.65625 28.734375 24.847656 C 29.542969 25.507812 31.175781 25.324219 31.605469 24.957031 C 31.832031 24.753906 32.179688 24.789062 32.375 25.019531 C 32.574219 25.246094 32.542969 25.59375 32.3125 25.785156 C 31.894531 26.140625 31.152344 26.363281 30.328125 26.382812 C 30.304688 26.382812 30.277344 26.382812 30.253906 26.382812 Z M 30.253906 26.382812 " fill-opacity="1" fill-rule="nonzero"/><path fill="#000000" d="M 34.816406 18.695312 C 34.816406 18.84375 34.789062 18.988281 34.730469 19.125 C 34.675781 19.261719 34.59375 19.386719 34.488281 19.492188 C 34.382812 19.597656 34.261719 19.679688 34.121094 19.734375 C 33.984375 19.792969 33.839844 19.820312 33.691406 19.820312 C 33.542969 19.820312 33.398438 19.792969 33.261719 19.734375 C 33.121094 19.679688 33 19.597656 32.894531 19.492188 C 32.789062 19.386719 32.707031 19.261719 32.652344 19.125 C 32.59375 18.988281 32.566406 18.84375 32.566406 18.695312 C 32.566406 18.546875 32.59375 18.402344 32.652344 18.261719 C 32.707031 18.125 32.789062 18.003906 32.894531 17.898438 C 33 17.792969 33.121094 17.710938 33.261719 17.652344 C 33.398438 17.597656 33.542969 17.566406 33.691406 17.566406 C 33.839844 17.566406 33.984375 17.597656 34.121094 17.652344 C 34.261719 17.710938 34.382812 17.792969 34.488281 17.898438 C 34.59375 18.003906 34.675781 18.125 34.730469 18.261719 C 34.789062 18.402344 34.816406 18.546875 34.816406 18.695312 Z M 34.816406 18.695312 " fill-opacity="1" fill-rule="nonzero"/><path fill="#000000" d="M 27.78125 18.671875 C 27.792969 19.292969 27.300781 19.800781 26.683594 19.8125 C 26.0625 19.824219 25.554688 19.332031 25.542969 18.714844 C 25.53125 18.09375 26.023438 17.582031 26.640625 17.574219 C 27.265625 17.5625 27.777344 18.058594 27.78125 18.671875 Z M 27.78125 18.671875 " fill-opacity="1" fill-rule="nonzero"/></svg>