<svg xmlns="http://www.w3.org/2000/svg" xmlns:xlink="http://www.w3.org/1999/xlink" width="40" zoomAndPan="magnify" viewBox="0 0 30 30.000001" height="40" preserveAspectRatio="xMidYMid meet" version="1.0"><defs><clipPath id="b32c0d66e9"><path d="M 4 6 L 26 6 L 26 24.898438 L 4 24.898438 Z M 4 6 " clip-rule="nonzero"/></clipPath></defs><g clip-path="url(#b32c0d66e9)"><path fill="#cb6ce6" d="M 25.191406 15.691406 C 25.191406 16.296875 25.128906 16.894531 25 17.488281 C 24.867188 18.082031 24.675781 18.65625 24.421875 19.214844 C 24.167969 19.769531 23.859375 20.300781 23.488281 20.804688 C 23.121094 21.304688 22.703125 21.769531 22.234375 22.199219 C 21.765625 22.625 21.253906 23.007812 20.703125 23.339844 C 20.152344 23.675781 19.570312 23.960938 18.957031 24.191406 C 18.34375 24.421875 17.710938 24.597656 17.0625 24.714844 C 16.410156 24.832031 15.753906 24.890625 15.089844 24.890625 C 14.425781 24.890625 13.769531 24.832031 13.117188 24.714844 C 12.46875 24.597656 11.835938 24.421875 11.222656 24.191406 C 10.609375 23.960938 10.027344 23.675781 9.476562 23.339844 C 8.925781 23.007812 8.414062 22.625 7.945312 22.199219 C 7.476562 21.769531 7.058594 21.304688 6.6875 20.804688 C 6.320312 20.300781 6.007812 19.769531 5.753906 19.214844 C 5.5 18.65625 5.308594 18.082031 5.179688 17.488281 C 5.050781 16.894531 4.988281 16.296875 4.988281 15.691406 C 4.988281 15.089844 5.050781 14.492188 5.179688 13.898438 C 5.308594 13.304688 5.5 12.730469 5.753906 12.171875 C 6.007812 11.613281 6.320312 11.085938 6.6875 10.582031 C 7.058594 10.082031 7.476562 9.617188 7.945312 9.1875 C 8.414062 8.761719 8.925781 8.378906 9.476562 8.042969 C 10.027344 7.707031 10.609375 7.425781 11.222656 7.195312 C 11.835938 6.964844 12.46875 6.789062 13.117188 6.671875 C 13.769531 6.554688 14.425781 6.492188 15.089844 6.492188 C 15.753906 6.492188 16.410156 6.554688 17.0625 6.671875 C 17.710938 6.789062 18.34375 6.964844 18.957031 7.195312 C 19.570312 7.425781 20.152344 7.707031 20.703125 8.042969 C 21.253906 8.378906 21.765625 8.761719 22.234375 9.1875 C 22.703125 9.617188 23.121094 10.082031 23.488281 10.582031 C 23.859375 11.085938 24.167969 11.613281 24.421875 12.171875 C 24.675781 12.730469 24.867188 13.304688 25 13.898438 C 25.128906 14.492188 25.191406 15.089844 25.191406 15.691406 Z M 25.191406 15.691406 " fill-opacity="1" fill-rule="nonzero"/></g><path fill="#cb6ce6" d="M 5.683594 12.527344 C 3.839844 10.035156 4.035156 6.816406 6.121094 5.335938 C 8.210938 3.855469 11.398438 4.675781 13.238281 7.171875 " fill-opacity="1" fill-rule="nonzero"/><path fill="#cb6ce6" d="M 24.496094 12.527344 C 26.339844 10.035156 26.140625 6.816406 24.054688 5.335938 C 21.96875 3.855469 18.78125 4.675781 16.9375 7.171875 " fill-opacity="1" fill-rule="nonzero"/><path fill="#e895ff" d="M 23.527344 10.050781 C 24.101562 8.910156 23.628906 7.53125 22.460938 6.964844 C 21.296875 6.398438 19.882812 6.859375 19.304688 8 " fill-opacity="1" fill-rule="nonzero"/><path fill="#e895ff" d="M 6.652344 10.050781 C 6.078125 8.910156 6.550781 7.53125 7.714844 6.964844 C 8.882812 6.398438 10.296875 6.859375 10.875 8 " fill-opacity="1" fill-rule="nonzero"/><path fill="#e895ff" d="M 18.980469 18.09375 C 18.980469 18.550781 18.878906 18.988281 18.683594 19.410156 C 18.484375 19.832031 18.203125 20.203125 17.839844 20.527344 C 17.476562 20.847656 17.054688 21.097656 16.578125 21.273438 C 16.101562 21.445312 15.605469 21.535156 15.089844 21.535156 C 14.574219 21.535156 14.078125 21.445312 13.601562 21.273438 C 13.125 21.097656 12.703125 20.847656 12.339844 20.527344 C 11.976562 20.203125 11.695312 19.832031 11.496094 19.410156 C 11.300781 18.988281 11.199219 18.550781 11.199219 18.09375 C 11.199219 17.636719 11.300781 17.199219 11.496094 16.777344 C 11.695312 16.355469 11.976562 15.984375 12.339844 15.660156 C 12.703125 15.335938 13.125 15.089844 13.601562 14.914062 C 14.078125 14.738281 14.574219 14.652344 15.089844 14.652344 C 15.605469 14.652344 16.101562 14.738281 16.578125 14.914062 C 17.054688 15.089844 17.476562 15.335938 17.839844 15.660156 C 18.203125 15.984375 18.484375 16.355469 18.683594 16.777344 C 18.878906 17.199219 18.980469 17.636719 18.980469 18.09375 Z M 18.980469 18.09375 " fill-opacity="1" fill-rule="nonzero"/><path fill="#000000" d="M 16.472656 16.648438 C 16.472656 17.175781 15.855469 18.074219 15.09375 18.074219 C 14.332031 18.074219 13.71875 17.175781 13.71875 16.648438 C 13.71875 16.121094 14.335938 15.691406 15.09375 15.691406 C 15.855469 15.691406 16.472656 16.121094 16.472656 16.648438 Z M 16.472656 16.648438 " fill-opacity="1" fill-rule="nonzero"/><path fill="#f7f7f7" d="M 15.75 16.167969 C 15.828125 16.195312 15.886719 16.242188 15.925781 16.304688 C 15.964844 16.371094 15.972656 16.4375 15.949219 16.5 C 15.925781 16.566406 15.878906 16.613281 15.808594 16.640625 C 15.734375 16.667969 15.660156 16.671875 15.582031 16.644531 C 15.503906 16.617188 15.445312 16.570312 15.40625 16.507812 C 15.367188 16.441406 15.359375 16.378906 15.382812 16.3125 C 15.40625 16.246094 15.453125 16.199219 15.523438 16.171875 C 15.597656 16.144531 15.671875 16.144531 15.75 16.167969 Z M 15.75 16.167969 " fill-opacity="1" fill-rule="nonzero"/><path fill="#000000" d="M 15.09375 19.347656 C 14.894531 19.347656 14.730469 19.191406 14.730469 18.992188 L 14.730469 17.546875 C 14.730469 17.351562 14.894531 17.195312 15.09375 17.195312 C 15.296875 17.195312 15.457031 17.351562 15.457031 17.546875 L 15.457031 18.992188 C 15.457031 19.1875 15.296875 19.347656 15.09375 19.347656 Z M 15.09375 19.347656 " fill-opacity="1" fill-rule="nonzero"/><path fill="#000000" d="M 15.140625 19.496094 C 14.777344 19.496094 14.152344 19.433594 13.671875 19.050781 C 13.515625 18.925781 13.496094 18.699219 13.621094 18.550781 C 13.746094 18.398438 13.976562 18.375 14.132812 18.5 C 14.667969 18.929688 15.753906 18.808594 16.039062 18.570312 C 16.191406 18.441406 16.421875 18.460938 16.550781 18.609375 C 16.683594 18.757812 16.660156 18.984375 16.507812 19.109375 C 16.230469 19.339844 15.738281 19.484375 15.191406 19.496094 C 15.171875 19.496094 15.15625 19.496094 15.140625 19.496094 Z M 15.140625 19.496094 " fill-opacity="1" fill-rule="nonzero"/><path fill="#000000" d="M 18.175781 14.496094 C 18.175781 14.699219 18.101562 14.871094 17.957031 15.015625 C 17.808594 15.160156 17.632812 15.230469 17.425781 15.230469 C 17.21875 15.230469 17.042969 15.160156 16.898438 15.015625 C 16.75 14.871094 16.675781 14.699219 16.675781 14.496094 C 16.675781 14.292969 16.75 14.121094 16.898438 13.980469 C 17.042969 13.835938 17.21875 13.765625 17.425781 13.765625 C 17.632812 13.765625 17.808594 13.835938 17.957031 13.980469 C 18.101562 14.121094 18.175781 14.292969 18.175781 14.496094 Z M 18.175781 14.496094 " fill-opacity="1" fill-rule="nonzero"/><path fill="#000000" d="M 13.496094 14.484375 C 13.503906 14.886719 13.175781 15.21875 12.765625 15.226562 C 12.355469 15.230469 12.015625 14.910156 12.007812 14.507812 C 12 14.105469 12.328125 13.773438 12.738281 13.769531 C 13.152344 13.761719 13.492188 14.082031 13.496094 14.484375 Z M 13.496094 14.484375 " fill-opacity="1" fill-rule="nonzero"/></svg>